# Blender v2.75 (sub 0) OBJ File: 'smallCube.blend'
# www.blender.org
mtllib smallCube.mtl
o Cube_Cube.001
v -0.750000 -0.750000 0.750000
v -0.750000 0.750000 0.750000
v -0.750000 -0.750000 -0.750000
v -0.750000 0.750000 -0.750000
v 0.750000 -0.750000 0.750000
v 0.750000 0.750000 0.750000
v 0.750000 -0.750000 -0.750000
v 0.750000 0.750000 -0.750000
vt 0.000087 0.500000
vt 0.000087 0.250043
vt 0.250043 0.250043
vt 0.500000 0.749957
vt 0.500000 0.999913
vt 0.250044 0.999913
vt 0.500000 0.500000
vt 0.500000 0.250043
vt 0.749957 0.250043
vt 0.250043 0.500000
vt 0.250043 0.000087
vt 0.500000 0.000087
vt 0.250044 0.749957
vt 0.749957 0.500000
vn -1.000000 0.000000 0.000000
vn 0.000000 0.000000 -1.000000
vn 1.000000 0.000000 0.000000
vn 0.000000 0.000000 1.000000
vn 0.000000 -1.000000 0.000000
vn 0.000000 1.000000 0.000000
usemtl None
s off
f 4/1/1 3/2/1 1/3/1
f 8/4/2 7/5/2 3/6/2
f 6/7/3 5/8/3 7/9/3
f 2/10/4 1/3/4 5/8/4
f 3/11/5 7/12/5 5/8/5
f 8/4/6 4/13/6 2/10/6
f 2/10/1 4/1/1 1/3/1
f 4/13/2 8/4/2 3/6/2
f 8/14/3 6/7/3 7/9/3
f 6/7/4 2/10/4 5/8/4
f 1/3/5 3/11/5 5/8/5
f 6/7/6 8/4/6 2/10/6
